<?xml version="1.0" encoding="utf-8"?>
<!-- Generator: Adobe Illustrator 20.0.0, SVG Export Plug-In . SVG Version: 6.00 Build 0)  -->
<svg version="1.1" id="Layer_1" xmlns="http://www.w3.org/2000/svg" xmlns:xlink="http://www.w3.org/1999/xlink" x="0px" y="0px"
	 viewBox="0 0 46.5 46.5" style="enable-background:new 0 0 46.5 46.5;" xml:space="preserve">
<title>landing Page Vectors</title>
<path d="M25.4,16.4L25.4,16.4L25.4,16.4L25.4,16.4c1.4,0.4,2.6,1.2,3.5,2.3v-18C19.7-1.6,10,1.9,4.5,9.6L25.4,16.4z"/>
<path d="M30.5,23.2c0,1.4-0.4,2.8-1.2,3.9l17.1-5.6c-0.7-9.4-7-17.5-16-20.5L30.5,23.2z"/>
<path d="M17.4,19L17.4,19c0.8-1.1,2-2,3.3-2.5L3.5,11c-5,8-4.7,18.3,0.9,25.9L17.4,19z"/>
<path d="M17.4,27.5L17.4,27.5c-0.8-1.1-1.3-2.5-1.4-3.9L5.5,38.2c6.1,7.2,15.9,10.1,24.9,7.2L17.4,27.5z"/>
<path d="M25.5,30.1L25.5,30.1c-1.3,0.4-2.8,0.5-4.1,0.1L32,44.8c8.8-3.5,14.5-12.1,14.5-21.5L25.5,30.1z"/>
</svg>
