<?xml version="1.0" encoding="utf-8"?>
<!-- Generator: Adobe Illustrator 20.0.0, SVG Export Plug-In . SVG Version: 6.00 Build 0)  -->
<svg version="1.1" id="Layer_1" xmlns="http://www.w3.org/2000/svg" xmlns:xlink="http://www.w3.org/1999/xlink" x="0px" y="0px"
	 viewBox="0 0 39.3 77.9" style="enable-background:new 0 0 39.3 77.9;" xml:space="preserve">
<title>landing Page Vectors</title>
<path d="M24.5,21.9c1.2,0,2.4,0.2,3.6,0.6c2.3,0.7,3.9,2.8,4.2,5.1c0.3,2.3,0,4.7-0.8,6.9c-1.7,4.8-3.5,9.7-5.3,14.5
	s-3.6,9.8-5.4,14.6c-0.4,0.9-0.5,1.8-0.5,2.8c-0.1,0.8,0.6,1.5,1.4,1.6c0.2,0,0.4,0,0.6-0.1c1.3-0.4,2.4-1.1,3.3-2
	c1.7-1.8,3.4-3.6,5.1-5.5c0.6-0.7,1.3-1.3,2-1.9c0.3-0.3,0.7-0.7,1.3-0.5c0.6,0.2,1,0.8,1,1.4c0,0.4-0.1,0.9-0.3,1.3
	c-0.9,1.8-2,3.4-3.4,4.8c-3.6,3.9-7.8,7.2-12.5,9.7c-2.4,1.3-5,2.1-7.7,2.5c-1.8,0.3-3.7,0.1-5.5-0.5c-2-0.7-3.4-2.5-3.6-4.6
	c-0.2-1.9,0-3.8,0.5-5.6c1.1-4.9,2.7-9.8,4.7-14.4c2.6-6.4,5.1-12.8,7.7-19.2c0.3-0.6,0.4-1.3,0.5-2c0.1-0.9-0.5-1.7-1.4-1.8
	c-0.2,0-0.5,0-0.7,0.1c-1,0.3-2,0.8-2.8,1.5c-1.8,1.5-3.5,3.2-4.9,5.1c-0.9,1-1.8,2.1-2.8,3.1c-0.3,0.3-0.6,0.5-1,0.6
	C0.9,40,0.1,39.5,0,38.7c0-0.2,0-0.4,0-0.7c0.2-0.7,0.6-1.3,1-1.9c2.2-3,4.8-5.7,7.7-8.1c2.7-2.3,5.7-4,9.1-5.1
	C20,22.3,22.2,22,24.5,21.9z"/>
<path d="M31.2,0c3.9-0.2,7.4,2.6,8,6.5c0.7,4.3-1.6,8.5-5.6,10.1c-2.7,1.2-5.8,1.2-8.4-0.2c-2.1-1.1-3.5-3.3-3.7-5.7
	C20.9,5.4,24.7,0.6,30.1,0c0.1,0,0.2,0,0.3,0C30.6,0,30.9,0,31.2,0z"/>
</svg>
